<mxfile host="app.diagrams.net" modified="2023-09-25T14:27:13.247Z" agent="Mozilla/5.0 (Windows NT 10.0; Win64; x64) AppleWebKit/537.36 (KHTML, like Gecko) Chrome/116.0.0.0 Safari/537.36" etag="5MyhW2TWc9Bx9KNLR85y" version="21.5.2" type="github">
  <diagram name="第 1 页" id="fGLv48qx7d6nPYhP5Zuc">
    <mxGraphModel dx="2358" dy="1253" grid="0" gridSize="10" guides="1" tooltips="1" connect="1" arrows="1" fold="1" page="1" pageScale="1" pageWidth="827" pageHeight="1169" math="0" shadow="0">
      <root>
        <mxCell id="0" />
        <mxCell id="1" parent="0" />
        <mxCell id="xZ3j72DLKvOZhvNE5rc1-77" value="" style="whiteSpace=wrap;html=1;" vertex="1" parent="1">
          <mxGeometry x="140" y="460" width="713" height="700" as="geometry" />
        </mxCell>
        <mxCell id="xZ3j72DLKvOZhvNE5rc1-205" value="" style="whiteSpace=wrap;html=1;dashed=1;" vertex="1" parent="1">
          <mxGeometry x="316" y="986" width="513" height="162" as="geometry" />
        </mxCell>
        <mxCell id="xZ3j72DLKvOZhvNE5rc1-167" value="" style="whiteSpace=wrap;html=1;dashed=1;" vertex="1" parent="1">
          <mxGeometry x="317" y="545" width="512" height="357" as="geometry" />
        </mxCell>
        <mxCell id="xZ3j72DLKvOZhvNE5rc1-66" value="" style="whiteSpace=wrap;html=1;" vertex="1" parent="1">
          <mxGeometry x="140" y="150" width="713" height="220" as="geometry" />
        </mxCell>
        <mxCell id="xZ3j72DLKvOZhvNE5rc1-64" value="" style="whiteSpace=wrap;html=1;dashed=1;" vertex="1" parent="1">
          <mxGeometry x="523" y="180" width="290" height="140" as="geometry" />
        </mxCell>
        <mxCell id="xZ3j72DLKvOZhvNE5rc1-63" value="" style="whiteSpace=wrap;html=1;dashed=1;" vertex="1" parent="1">
          <mxGeometry x="201" y="180" width="290" height="140" as="geometry" />
        </mxCell>
        <mxCell id="xZ3j72DLKvOZhvNE5rc1-4" value="" style="rounded=0;whiteSpace=wrap;html=1;" vertex="1" parent="1">
          <mxGeometry x="211" y="200" width="270" height="20" as="geometry" />
        </mxCell>
        <mxCell id="xZ3j72DLKvOZhvNE5rc1-5" value="" style="rounded=0;whiteSpace=wrap;html=1;fillColor=#f8cecc;strokeColor=#b85450;" vertex="1" parent="1">
          <mxGeometry x="241" y="200" width="50" height="20" as="geometry" />
        </mxCell>
        <mxCell id="xZ3j72DLKvOZhvNE5rc1-7" value="" style="rounded=0;whiteSpace=wrap;html=1;fillColor=#f8cecc;strokeColor=#b85450;" vertex="1" parent="1">
          <mxGeometry x="341" y="200" width="20" height="20" as="geometry" />
        </mxCell>
        <mxCell id="xZ3j72DLKvOZhvNE5rc1-8" value="" style="rounded=0;whiteSpace=wrap;html=1;fillColor=#f8cecc;strokeColor=#b85450;" vertex="1" parent="1">
          <mxGeometry x="411" y="200" width="40" height="20" as="geometry" />
        </mxCell>
        <mxCell id="xZ3j72DLKvOZhvNE5rc1-9" value="识别致病区域" style="text;html=1;align=center;verticalAlign=middle;resizable=0;points=[];autosize=1;strokeColor=none;fillColor=none;fontSize=20;" vertex="1" parent="1">
          <mxGeometry x="281" y="320" width="140" height="40" as="geometry" />
        </mxCell>
        <mxCell id="xZ3j72DLKvOZhvNE5rc1-10" value="" style="rounded=0;whiteSpace=wrap;html=1;" vertex="1" parent="1">
          <mxGeometry x="211" y="230" width="270" height="20" as="geometry" />
        </mxCell>
        <mxCell id="xZ3j72DLKvOZhvNE5rc1-11" value="" style="rounded=0;whiteSpace=wrap;html=1;fillColor=#f8cecc;strokeColor=#b85450;" vertex="1" parent="1">
          <mxGeometry x="241" y="230" width="50" height="20" as="geometry" />
        </mxCell>
        <mxCell id="xZ3j72DLKvOZhvNE5rc1-12" value="" style="rounded=0;whiteSpace=wrap;html=1;fillColor=#f8cecc;strokeColor=#b85450;" vertex="1" parent="1">
          <mxGeometry x="341" y="230" width="20" height="20" as="geometry" />
        </mxCell>
        <mxCell id="xZ3j72DLKvOZhvNE5rc1-13" value="" style="rounded=0;whiteSpace=wrap;html=1;fillColor=#f8cecc;strokeColor=#b85450;" vertex="1" parent="1">
          <mxGeometry x="411" y="230" width="40" height="20" as="geometry" />
        </mxCell>
        <mxCell id="xZ3j72DLKvOZhvNE5rc1-14" value="" style="rounded=0;whiteSpace=wrap;html=1;" vertex="1" parent="1">
          <mxGeometry x="211" y="280" width="270" height="20" as="geometry" />
        </mxCell>
        <mxCell id="xZ3j72DLKvOZhvNE5rc1-15" value="" style="rounded=0;whiteSpace=wrap;html=1;fillColor=#f8cecc;strokeColor=#b85450;" vertex="1" parent="1">
          <mxGeometry x="241" y="280" width="50" height="20" as="geometry" />
        </mxCell>
        <mxCell id="xZ3j72DLKvOZhvNE5rc1-16" value="" style="rounded=0;whiteSpace=wrap;html=1;fillColor=#f8cecc;strokeColor=#b85450;" vertex="1" parent="1">
          <mxGeometry x="341" y="280" width="20" height="20" as="geometry" />
        </mxCell>
        <mxCell id="xZ3j72DLKvOZhvNE5rc1-17" value="" style="rounded=0;whiteSpace=wrap;html=1;fillColor=#f8cecc;strokeColor=#b85450;" vertex="1" parent="1">
          <mxGeometry x="411" y="280" width="40" height="20" as="geometry" />
        </mxCell>
        <mxCell id="xZ3j72DLKvOZhvNE5rc1-18" value="" style="rounded=0;whiteSpace=wrap;html=1;" vertex="1" parent="1">
          <mxGeometry x="533" y="200" width="270" height="20" as="geometry" />
        </mxCell>
        <mxCell id="xZ3j72DLKvOZhvNE5rc1-19" value="" style="rounded=0;whiteSpace=wrap;html=1;fillColor=#d5e8d4;strokeColor=#82b366;" vertex="1" parent="1">
          <mxGeometry x="563" y="200" width="20" height="20" as="geometry" />
        </mxCell>
        <mxCell id="xZ3j72DLKvOZhvNE5rc1-47" value="" style="rounded=0;whiteSpace=wrap;html=1;fillColor=#d5e8d4;strokeColor=#82b366;" vertex="1" parent="1">
          <mxGeometry x="623" y="200" width="40" height="20" as="geometry" />
        </mxCell>
        <mxCell id="xZ3j72DLKvOZhvNE5rc1-48" value="" style="rounded=0;whiteSpace=wrap;html=1;fillColor=#d5e8d4;strokeColor=#82b366;" vertex="1" parent="1">
          <mxGeometry x="703" y="200" width="70" height="20" as="geometry" />
        </mxCell>
        <mxCell id="xZ3j72DLKvOZhvNE5rc1-49" value="" style="rounded=0;whiteSpace=wrap;html=1;" vertex="1" parent="1">
          <mxGeometry x="533" y="230" width="270" height="20" as="geometry" />
        </mxCell>
        <mxCell id="xZ3j72DLKvOZhvNE5rc1-50" value="" style="rounded=0;whiteSpace=wrap;html=1;fillColor=#d5e8d4;strokeColor=#82b366;" vertex="1" parent="1">
          <mxGeometry x="563" y="230" width="20" height="20" as="geometry" />
        </mxCell>
        <mxCell id="xZ3j72DLKvOZhvNE5rc1-51" value="" style="rounded=0;whiteSpace=wrap;html=1;fillColor=#d5e8d4;strokeColor=#82b366;" vertex="1" parent="1">
          <mxGeometry x="623" y="230" width="40" height="20" as="geometry" />
        </mxCell>
        <mxCell id="xZ3j72DLKvOZhvNE5rc1-52" value="" style="rounded=0;whiteSpace=wrap;html=1;fillColor=#d5e8d4;strokeColor=#82b366;" vertex="1" parent="1">
          <mxGeometry x="703" y="230" width="70" height="20" as="geometry" />
        </mxCell>
        <mxCell id="xZ3j72DLKvOZhvNE5rc1-53" value="... ..." style="text;html=1;align=center;verticalAlign=middle;resizable=0;points=[];autosize=1;strokeColor=none;fillColor=none;fontSize=20;fontStyle=1" vertex="1" parent="1">
          <mxGeometry x="311" y="240" width="60" height="40" as="geometry" />
        </mxCell>
        <mxCell id="xZ3j72DLKvOZhvNE5rc1-54" value="... ..." style="text;html=1;align=center;verticalAlign=middle;resizable=0;points=[];autosize=1;strokeColor=none;fillColor=none;fontSize=20;fontStyle=1" vertex="1" parent="1">
          <mxGeometry x="633" y="240" width="60" height="40" as="geometry" />
        </mxCell>
        <mxCell id="xZ3j72DLKvOZhvNE5rc1-59" value="" style="rounded=0;whiteSpace=wrap;html=1;" vertex="1" parent="1">
          <mxGeometry x="533" y="280" width="270" height="20" as="geometry" />
        </mxCell>
        <mxCell id="xZ3j72DLKvOZhvNE5rc1-60" value="" style="rounded=0;whiteSpace=wrap;html=1;fillColor=#d5e8d4;strokeColor=#82b366;" vertex="1" parent="1">
          <mxGeometry x="563" y="280" width="20" height="20" as="geometry" />
        </mxCell>
        <mxCell id="xZ3j72DLKvOZhvNE5rc1-61" value="" style="rounded=0;whiteSpace=wrap;html=1;fillColor=#d5e8d4;strokeColor=#82b366;" vertex="1" parent="1">
          <mxGeometry x="623" y="280" width="40" height="20" as="geometry" />
        </mxCell>
        <mxCell id="xZ3j72DLKvOZhvNE5rc1-62" value="" style="rounded=0;whiteSpace=wrap;html=1;fillColor=#d5e8d4;strokeColor=#82b366;" vertex="1" parent="1">
          <mxGeometry x="703" y="280" width="70" height="20" as="geometry" />
        </mxCell>
        <mxCell id="xZ3j72DLKvOZhvNE5rc1-65" value="同比例非致病区域" style="text;html=1;align=center;verticalAlign=middle;resizable=0;points=[];autosize=1;strokeColor=none;fillColor=none;fontSize=20;" vertex="1" parent="1">
          <mxGeometry x="573" y="320" width="180" height="40" as="geometry" />
        </mxCell>
        <mxCell id="xZ3j72DLKvOZhvNE5rc1-67" value="数据准备" style="text;html=1;align=center;verticalAlign=middle;resizable=0;points=[];autosize=1;strokeColor=none;fillColor=none;fontSize=20;fontStyle=1" vertex="1" parent="1">
          <mxGeometry x="20" y="240" width="100" height="40" as="geometry" />
        </mxCell>
        <mxCell id="xZ3j72DLKvOZhvNE5rc1-68" value="数据预处理" style="text;html=1;align=center;verticalAlign=middle;resizable=0;points=[];autosize=1;strokeColor=none;fillColor=none;fontSize=20;fontStyle=1" vertex="1" parent="1">
          <mxGeometry x="10" y="397.5" width="120" height="40" as="geometry" />
        </mxCell>
        <mxCell id="xZ3j72DLKvOZhvNE5rc1-69" value="" style="whiteSpace=wrap;html=1;" vertex="1" parent="1">
          <mxGeometry x="140" y="370" width="713" height="90" as="geometry" />
        </mxCell>
        <mxCell id="xZ3j72DLKvOZhvNE5rc1-70" value="数据集划分" style="rounded=0;whiteSpace=wrap;html=1;fontSize=20;flipH=1;" vertex="1" parent="1">
          <mxGeometry x="327" y="392.5" width="150" height="45" as="geometry" />
        </mxCell>
        <mxCell id="xZ3j72DLKvOZhvNE5rc1-71" value="数据筛选" style="rounded=0;whiteSpace=wrap;html=1;fontSize=20;flipH=1;" vertex="1" parent="1">
          <mxGeometry x="161" y="392.5" width="150" height="45" as="geometry" />
        </mxCell>
        <mxCell id="xZ3j72DLKvOZhvNE5rc1-73" value="预测模型" style="text;html=1;align=center;verticalAlign=middle;resizable=0;points=[];autosize=1;strokeColor=none;fillColor=none;fontSize=20;fontStyle=1" vertex="1" parent="1">
          <mxGeometry x="20" y="799" width="100" height="40" as="geometry" />
        </mxCell>
        <mxCell id="xZ3j72DLKvOZhvNE5rc1-79" value="特征计算" style="rounded=0;whiteSpace=wrap;html=1;fontSize=20;flipH=1;" vertex="1" parent="1">
          <mxGeometry x="506" y="392.5" width="150" height="45" as="geometry" />
        </mxCell>
        <mxCell id="xZ3j72DLKvOZhvNE5rc1-162" value="输入层" style="text;html=1;align=center;verticalAlign=middle;resizable=0;points=[];autosize=1;strokeColor=none;fillColor=none;fontSize=18;" vertex="1" parent="1">
          <mxGeometry x="336.5" y="569" width="72" height="34" as="geometry" />
        </mxCell>
        <mxCell id="xZ3j72DLKvOZhvNE5rc1-163" value="两层RNN" style="text;html=1;align=center;verticalAlign=middle;resizable=0;points=[];autosize=1;strokeColor=none;fillColor=none;fontSize=18;" vertex="1" parent="1">
          <mxGeometry x="326" y="704" width="93" height="34" as="geometry" />
        </mxCell>
        <mxCell id="xZ3j72DLKvOZhvNE5rc1-164" value="输出层" style="text;html=1;align=center;verticalAlign=middle;resizable=0;points=[];autosize=1;strokeColor=none;fillColor=none;fontSize=18;" vertex="1" parent="1">
          <mxGeometry x="336.5" y="845" width="72" height="34" as="geometry" />
        </mxCell>
        <mxCell id="xZ3j72DLKvOZhvNE5rc1-166" value="" style="group" vertex="1" connectable="0" parent="1">
          <mxGeometry x="415" y="560" width="365" height="321" as="geometry" />
        </mxCell>
        <mxCell id="xZ3j72DLKvOZhvNE5rc1-102" value="" style="group" vertex="1" connectable="0" parent="xZ3j72DLKvOZhvNE5rc1-166">
          <mxGeometry x="62" y="203" width="253" height="40" as="geometry" />
        </mxCell>
        <mxCell id="xZ3j72DLKvOZhvNE5rc1-97" value="" style="ellipse;whiteSpace=wrap;html=1;aspect=fixed;fillColor=#f8cecc;strokeColor=#b85450;" vertex="1" parent="xZ3j72DLKvOZhvNE5rc1-102">
          <mxGeometry y="5" width="30" height="30" as="geometry" />
        </mxCell>
        <mxCell id="xZ3j72DLKvOZhvNE5rc1-98" value="" style="ellipse;whiteSpace=wrap;html=1;aspect=fixed;fillColor=#f8cecc;strokeColor=#b85450;" vertex="1" parent="xZ3j72DLKvOZhvNE5rc1-102">
          <mxGeometry x="56" y="5" width="30" height="30" as="geometry" />
        </mxCell>
        <mxCell id="xZ3j72DLKvOZhvNE5rc1-99" value="" style="ellipse;whiteSpace=wrap;html=1;aspect=fixed;fillColor=#f8cecc;strokeColor=#b85450;" vertex="1" parent="xZ3j72DLKvOZhvNE5rc1-102">
          <mxGeometry x="111" y="5" width="30" height="30" as="geometry" />
        </mxCell>
        <mxCell id="xZ3j72DLKvOZhvNE5rc1-100" value="" style="ellipse;whiteSpace=wrap;html=1;aspect=fixed;fillColor=#f8cecc;strokeColor=#b85450;" vertex="1" parent="xZ3j72DLKvOZhvNE5rc1-102">
          <mxGeometry x="223" y="5" width="30" height="30" as="geometry" />
        </mxCell>
        <mxCell id="xZ3j72DLKvOZhvNE5rc1-101" value="..." style="text;html=1;align=center;verticalAlign=middle;resizable=0;points=[];autosize=1;strokeColor=none;fillColor=none;fontStyle=1;fontSize=20;" vertex="1" parent="xZ3j72DLKvOZhvNE5rc1-102">
          <mxGeometry x="162" width="40" height="40" as="geometry" />
        </mxCell>
        <mxCell id="xZ3j72DLKvOZhvNE5rc1-103" value="" style="group" vertex="1" connectable="0" parent="xZ3j72DLKvOZhvNE5rc1-166">
          <mxGeometry x="62" y="109" width="253" height="40" as="geometry" />
        </mxCell>
        <mxCell id="xZ3j72DLKvOZhvNE5rc1-92" value="" style="ellipse;whiteSpace=wrap;html=1;aspect=fixed;fillColor=#f8cecc;strokeColor=#b85450;" vertex="1" parent="xZ3j72DLKvOZhvNE5rc1-103">
          <mxGeometry y="5" width="30" height="30" as="geometry" />
        </mxCell>
        <mxCell id="xZ3j72DLKvOZhvNE5rc1-93" value="" style="ellipse;whiteSpace=wrap;html=1;aspect=fixed;fillColor=#f8cecc;strokeColor=#b85450;" vertex="1" parent="xZ3j72DLKvOZhvNE5rc1-103">
          <mxGeometry x="56" y="5" width="30" height="30" as="geometry" />
        </mxCell>
        <mxCell id="xZ3j72DLKvOZhvNE5rc1-94" value="" style="ellipse;whiteSpace=wrap;html=1;aspect=fixed;fillColor=#f8cecc;strokeColor=#b85450;" vertex="1" parent="xZ3j72DLKvOZhvNE5rc1-103">
          <mxGeometry x="111" y="5" width="30" height="30" as="geometry" />
        </mxCell>
        <mxCell id="xZ3j72DLKvOZhvNE5rc1-95" value="" style="ellipse;whiteSpace=wrap;html=1;aspect=fixed;fillColor=#f8cecc;strokeColor=#b85450;" vertex="1" parent="xZ3j72DLKvOZhvNE5rc1-103">
          <mxGeometry x="223" y="5" width="30" height="30" as="geometry" />
        </mxCell>
        <mxCell id="xZ3j72DLKvOZhvNE5rc1-96" value="..." style="text;html=1;align=center;verticalAlign=middle;resizable=0;points=[];autosize=1;strokeColor=none;fillColor=none;fontStyle=1;fontSize=20;" vertex="1" parent="xZ3j72DLKvOZhvNE5rc1-103">
          <mxGeometry x="162" width="40" height="40" as="geometry" />
        </mxCell>
        <mxCell id="xZ3j72DLKvOZhvNE5rc1-111" value="" style="ellipse;whiteSpace=wrap;html=1;aspect=fixed;fillColor=#d5e8d4;strokeColor=#82b366;" vertex="1" parent="xZ3j72DLKvOZhvNE5rc1-166">
          <mxGeometry x="143.5" y="291" width="30" height="30" as="geometry" />
        </mxCell>
        <mxCell id="xZ3j72DLKvOZhvNE5rc1-112" value="" style="ellipse;whiteSpace=wrap;html=1;aspect=fixed;fillColor=#d5e8d4;strokeColor=#82b366;" vertex="1" parent="xZ3j72DLKvOZhvNE5rc1-166">
          <mxGeometry x="203.5" y="291" width="30" height="30" as="geometry" />
        </mxCell>
        <mxCell id="xZ3j72DLKvOZhvNE5rc1-114" style="rounded=0;orthogonalLoop=1;jettySize=auto;html=1;exitX=0.5;exitY=1;exitDx=0;exitDy=0;entryX=0.5;entryY=0;entryDx=0;entryDy=0;" edge="1" parent="xZ3j72DLKvOZhvNE5rc1-166" source="xZ3j72DLKvOZhvNE5rc1-82" target="xZ3j72DLKvOZhvNE5rc1-92">
          <mxGeometry relative="1" as="geometry" />
        </mxCell>
        <mxCell id="xZ3j72DLKvOZhvNE5rc1-116" style="rounded=0;orthogonalLoop=1;jettySize=auto;html=1;exitX=0.5;exitY=1;exitDx=0;exitDy=0;entryX=0.5;entryY=0;entryDx=0;entryDy=0;" edge="1" parent="xZ3j72DLKvOZhvNE5rc1-166" source="xZ3j72DLKvOZhvNE5rc1-82" target="xZ3j72DLKvOZhvNE5rc1-93">
          <mxGeometry relative="1" as="geometry" />
        </mxCell>
        <mxCell id="xZ3j72DLKvOZhvNE5rc1-117" style="rounded=0;orthogonalLoop=1;jettySize=auto;html=1;exitX=0.5;exitY=1;exitDx=0;exitDy=0;entryX=0.5;entryY=0;entryDx=0;entryDy=0;" edge="1" parent="xZ3j72DLKvOZhvNE5rc1-166" source="xZ3j72DLKvOZhvNE5rc1-82" target="xZ3j72DLKvOZhvNE5rc1-94">
          <mxGeometry relative="1" as="geometry" />
        </mxCell>
        <mxCell id="xZ3j72DLKvOZhvNE5rc1-118" style="rounded=0;orthogonalLoop=1;jettySize=auto;html=1;exitX=0.5;exitY=1;exitDx=0;exitDy=0;entryX=0.5;entryY=0;entryDx=0;entryDy=0;" edge="1" parent="xZ3j72DLKvOZhvNE5rc1-166" source="xZ3j72DLKvOZhvNE5rc1-82" target="xZ3j72DLKvOZhvNE5rc1-95">
          <mxGeometry relative="1" as="geometry" />
        </mxCell>
        <mxCell id="xZ3j72DLKvOZhvNE5rc1-82" value="" style="ellipse;whiteSpace=wrap;html=1;aspect=fixed;fillColor=#dae8fc;strokeColor=#6c8ebf;" vertex="1" parent="xZ3j72DLKvOZhvNE5rc1-166">
          <mxGeometry y="5" width="30" height="30" as="geometry" />
        </mxCell>
        <mxCell id="xZ3j72DLKvOZhvNE5rc1-115" style="rounded=0;orthogonalLoop=1;jettySize=auto;html=1;exitX=0.5;exitY=1;exitDx=0;exitDy=0;" edge="1" parent="xZ3j72DLKvOZhvNE5rc1-166" source="xZ3j72DLKvOZhvNE5rc1-83" target="xZ3j72DLKvOZhvNE5rc1-92">
          <mxGeometry relative="1" as="geometry" />
        </mxCell>
        <mxCell id="xZ3j72DLKvOZhvNE5rc1-119" style="rounded=0;orthogonalLoop=1;jettySize=auto;html=1;exitX=0.5;exitY=1;exitDx=0;exitDy=0;entryX=0.5;entryY=0;entryDx=0;entryDy=0;" edge="1" parent="xZ3j72DLKvOZhvNE5rc1-166" source="xZ3j72DLKvOZhvNE5rc1-83" target="xZ3j72DLKvOZhvNE5rc1-93">
          <mxGeometry relative="1" as="geometry" />
        </mxCell>
        <mxCell id="xZ3j72DLKvOZhvNE5rc1-121" style="rounded=0;orthogonalLoop=1;jettySize=auto;html=1;exitX=0.5;exitY=1;exitDx=0;exitDy=0;entryX=0.5;entryY=0;entryDx=0;entryDy=0;" edge="1" parent="xZ3j72DLKvOZhvNE5rc1-166" source="xZ3j72DLKvOZhvNE5rc1-83" target="xZ3j72DLKvOZhvNE5rc1-94">
          <mxGeometry relative="1" as="geometry" />
        </mxCell>
        <mxCell id="xZ3j72DLKvOZhvNE5rc1-122" style="rounded=0;orthogonalLoop=1;jettySize=auto;html=1;exitX=0.5;exitY=1;exitDx=0;exitDy=0;entryX=0.5;entryY=0;entryDx=0;entryDy=0;" edge="1" parent="xZ3j72DLKvOZhvNE5rc1-166" source="xZ3j72DLKvOZhvNE5rc1-83" target="xZ3j72DLKvOZhvNE5rc1-95">
          <mxGeometry relative="1" as="geometry" />
        </mxCell>
        <mxCell id="xZ3j72DLKvOZhvNE5rc1-83" value="" style="ellipse;whiteSpace=wrap;html=1;aspect=fixed;fillColor=#dae8fc;strokeColor=#6c8ebf;" vertex="1" parent="xZ3j72DLKvOZhvNE5rc1-166">
          <mxGeometry x="56" y="5" width="30" height="30" as="geometry" />
        </mxCell>
        <mxCell id="xZ3j72DLKvOZhvNE5rc1-120" style="rounded=0;orthogonalLoop=1;jettySize=auto;html=1;exitX=0.5;exitY=1;exitDx=0;exitDy=0;" edge="1" parent="xZ3j72DLKvOZhvNE5rc1-166" source="xZ3j72DLKvOZhvNE5rc1-86" target="xZ3j72DLKvOZhvNE5rc1-93">
          <mxGeometry relative="1" as="geometry" />
        </mxCell>
        <mxCell id="xZ3j72DLKvOZhvNE5rc1-123" style="rounded=0;orthogonalLoop=1;jettySize=auto;html=1;exitX=0.5;exitY=1;exitDx=0;exitDy=0;entryX=0.5;entryY=0;entryDx=0;entryDy=0;" edge="1" parent="xZ3j72DLKvOZhvNE5rc1-166" source="xZ3j72DLKvOZhvNE5rc1-86" target="xZ3j72DLKvOZhvNE5rc1-92">
          <mxGeometry relative="1" as="geometry" />
        </mxCell>
        <mxCell id="xZ3j72DLKvOZhvNE5rc1-124" style="rounded=0;orthogonalLoop=1;jettySize=auto;html=1;exitX=0.5;exitY=1;exitDx=0;exitDy=0;entryX=0.5;entryY=0;entryDx=0;entryDy=0;" edge="1" parent="xZ3j72DLKvOZhvNE5rc1-166" source="xZ3j72DLKvOZhvNE5rc1-86" target="xZ3j72DLKvOZhvNE5rc1-94">
          <mxGeometry relative="1" as="geometry" />
        </mxCell>
        <mxCell id="xZ3j72DLKvOZhvNE5rc1-125" style="rounded=0;orthogonalLoop=1;jettySize=auto;html=1;exitX=0.5;exitY=1;exitDx=0;exitDy=0;entryX=0.5;entryY=0;entryDx=0;entryDy=0;" edge="1" parent="xZ3j72DLKvOZhvNE5rc1-166" source="xZ3j72DLKvOZhvNE5rc1-86" target="xZ3j72DLKvOZhvNE5rc1-95">
          <mxGeometry relative="1" as="geometry" />
        </mxCell>
        <mxCell id="xZ3j72DLKvOZhvNE5rc1-86" value="" style="ellipse;whiteSpace=wrap;html=1;aspect=fixed;fillColor=#dae8fc;strokeColor=#6c8ebf;" vertex="1" parent="xZ3j72DLKvOZhvNE5rc1-166">
          <mxGeometry x="112" y="5" width="30" height="30" as="geometry" />
        </mxCell>
        <mxCell id="xZ3j72DLKvOZhvNE5rc1-126" style="rounded=0;orthogonalLoop=1;jettySize=auto;html=1;exitX=0.5;exitY=1;exitDx=0;exitDy=0;entryX=0.5;entryY=0;entryDx=0;entryDy=0;" edge="1" parent="xZ3j72DLKvOZhvNE5rc1-166" source="xZ3j72DLKvOZhvNE5rc1-87" target="xZ3j72DLKvOZhvNE5rc1-92">
          <mxGeometry relative="1" as="geometry" />
        </mxCell>
        <mxCell id="xZ3j72DLKvOZhvNE5rc1-127" style="rounded=0;orthogonalLoop=1;jettySize=auto;html=1;exitX=0.5;exitY=1;exitDx=0;exitDy=0;entryX=0.5;entryY=0;entryDx=0;entryDy=0;" edge="1" parent="xZ3j72DLKvOZhvNE5rc1-166" source="xZ3j72DLKvOZhvNE5rc1-87" target="xZ3j72DLKvOZhvNE5rc1-93">
          <mxGeometry relative="1" as="geometry" />
        </mxCell>
        <mxCell id="xZ3j72DLKvOZhvNE5rc1-128" style="rounded=0;orthogonalLoop=1;jettySize=auto;html=1;exitX=0.5;exitY=1;exitDx=0;exitDy=0;entryX=0.5;entryY=0;entryDx=0;entryDy=0;" edge="1" parent="xZ3j72DLKvOZhvNE5rc1-166" source="xZ3j72DLKvOZhvNE5rc1-87" target="xZ3j72DLKvOZhvNE5rc1-94">
          <mxGeometry relative="1" as="geometry" />
        </mxCell>
        <mxCell id="xZ3j72DLKvOZhvNE5rc1-129" style="rounded=0;orthogonalLoop=1;jettySize=auto;html=1;exitX=0.5;exitY=1;exitDx=0;exitDy=0;entryX=0.5;entryY=0;entryDx=0;entryDy=0;" edge="1" parent="xZ3j72DLKvOZhvNE5rc1-166" source="xZ3j72DLKvOZhvNE5rc1-87" target="xZ3j72DLKvOZhvNE5rc1-95">
          <mxGeometry relative="1" as="geometry" />
        </mxCell>
        <mxCell id="xZ3j72DLKvOZhvNE5rc1-87" value="" style="ellipse;whiteSpace=wrap;html=1;aspect=fixed;fillColor=#dae8fc;strokeColor=#6c8ebf;" vertex="1" parent="xZ3j72DLKvOZhvNE5rc1-166">
          <mxGeometry x="168" y="5" width="30" height="30" as="geometry" />
        </mxCell>
        <mxCell id="xZ3j72DLKvOZhvNE5rc1-130" style="rounded=0;orthogonalLoop=1;jettySize=auto;html=1;exitX=0.5;exitY=1;exitDx=0;exitDy=0;entryX=0.5;entryY=0;entryDx=0;entryDy=0;" edge="1" parent="xZ3j72DLKvOZhvNE5rc1-166" source="xZ3j72DLKvOZhvNE5rc1-88" target="xZ3j72DLKvOZhvNE5rc1-92">
          <mxGeometry relative="1" as="geometry" />
        </mxCell>
        <mxCell id="xZ3j72DLKvOZhvNE5rc1-131" style="rounded=0;orthogonalLoop=1;jettySize=auto;html=1;exitX=0.5;exitY=1;exitDx=0;exitDy=0;entryX=0.5;entryY=0;entryDx=0;entryDy=0;" edge="1" parent="xZ3j72DLKvOZhvNE5rc1-166" source="xZ3j72DLKvOZhvNE5rc1-88" target="xZ3j72DLKvOZhvNE5rc1-93">
          <mxGeometry relative="1" as="geometry" />
        </mxCell>
        <mxCell id="xZ3j72DLKvOZhvNE5rc1-132" style="rounded=0;orthogonalLoop=1;jettySize=auto;html=1;exitX=0.5;exitY=1;exitDx=0;exitDy=0;entryX=0.5;entryY=0;entryDx=0;entryDy=0;" edge="1" parent="xZ3j72DLKvOZhvNE5rc1-166" source="xZ3j72DLKvOZhvNE5rc1-88" target="xZ3j72DLKvOZhvNE5rc1-94">
          <mxGeometry relative="1" as="geometry" />
        </mxCell>
        <mxCell id="xZ3j72DLKvOZhvNE5rc1-133" style="rounded=0;orthogonalLoop=1;jettySize=auto;html=1;exitX=0.5;exitY=1;exitDx=0;exitDy=0;entryX=0.5;entryY=0;entryDx=0;entryDy=0;" edge="1" parent="xZ3j72DLKvOZhvNE5rc1-166" source="xZ3j72DLKvOZhvNE5rc1-88" target="xZ3j72DLKvOZhvNE5rc1-95">
          <mxGeometry relative="1" as="geometry" />
        </mxCell>
        <mxCell id="xZ3j72DLKvOZhvNE5rc1-88" value="" style="ellipse;whiteSpace=wrap;html=1;aspect=fixed;fillColor=#dae8fc;strokeColor=#6c8ebf;" vertex="1" parent="xZ3j72DLKvOZhvNE5rc1-166">
          <mxGeometry x="223" y="5" width="30" height="30" as="geometry" />
        </mxCell>
        <mxCell id="xZ3j72DLKvOZhvNE5rc1-134" style="rounded=0;orthogonalLoop=1;jettySize=auto;html=1;exitX=0.5;exitY=1;exitDx=0;exitDy=0;entryX=0.5;entryY=0;entryDx=0;entryDy=0;" edge="1" parent="xZ3j72DLKvOZhvNE5rc1-166" source="xZ3j72DLKvOZhvNE5rc1-89" target="xZ3j72DLKvOZhvNE5rc1-95">
          <mxGeometry relative="1" as="geometry" />
        </mxCell>
        <mxCell id="xZ3j72DLKvOZhvNE5rc1-135" style="rounded=0;orthogonalLoop=1;jettySize=auto;html=1;exitX=0.5;exitY=1;exitDx=0;exitDy=0;entryX=0.5;entryY=0;entryDx=0;entryDy=0;" edge="1" parent="xZ3j72DLKvOZhvNE5rc1-166" source="xZ3j72DLKvOZhvNE5rc1-89" target="xZ3j72DLKvOZhvNE5rc1-94">
          <mxGeometry relative="1" as="geometry" />
        </mxCell>
        <mxCell id="xZ3j72DLKvOZhvNE5rc1-136" style="rounded=0;orthogonalLoop=1;jettySize=auto;html=1;exitX=0.5;exitY=1;exitDx=0;exitDy=0;entryX=0.5;entryY=0;entryDx=0;entryDy=0;" edge="1" parent="xZ3j72DLKvOZhvNE5rc1-166" source="xZ3j72DLKvOZhvNE5rc1-89" target="xZ3j72DLKvOZhvNE5rc1-93">
          <mxGeometry relative="1" as="geometry" />
        </mxCell>
        <mxCell id="xZ3j72DLKvOZhvNE5rc1-137" style="rounded=0;orthogonalLoop=1;jettySize=auto;html=1;exitX=0.5;exitY=1;exitDx=0;exitDy=0;entryX=0.5;entryY=0;entryDx=0;entryDy=0;" edge="1" parent="xZ3j72DLKvOZhvNE5rc1-166" source="xZ3j72DLKvOZhvNE5rc1-89" target="xZ3j72DLKvOZhvNE5rc1-92">
          <mxGeometry relative="1" as="geometry" />
        </mxCell>
        <mxCell id="xZ3j72DLKvOZhvNE5rc1-89" value="" style="ellipse;whiteSpace=wrap;html=1;aspect=fixed;fillColor=#dae8fc;strokeColor=#6c8ebf;" vertex="1" parent="xZ3j72DLKvOZhvNE5rc1-166">
          <mxGeometry x="335" y="5" width="30" height="30" as="geometry" />
        </mxCell>
        <mxCell id="xZ3j72DLKvOZhvNE5rc1-91" value="..." style="text;html=1;align=center;verticalAlign=middle;resizable=0;points=[];autosize=1;fontStyle=1;fontSize=20;" vertex="1" parent="xZ3j72DLKvOZhvNE5rc1-166">
          <mxGeometry x="274" width="40" height="40" as="geometry" />
        </mxCell>
        <mxCell id="xZ3j72DLKvOZhvNE5rc1-138" style="rounded=0;orthogonalLoop=1;jettySize=auto;html=1;exitX=0.5;exitY=1;exitDx=0;exitDy=0;entryX=0.5;entryY=0;entryDx=0;entryDy=0;" edge="1" parent="xZ3j72DLKvOZhvNE5rc1-166" source="xZ3j72DLKvOZhvNE5rc1-92" target="xZ3j72DLKvOZhvNE5rc1-97">
          <mxGeometry relative="1" as="geometry" />
        </mxCell>
        <mxCell id="xZ3j72DLKvOZhvNE5rc1-139" style="rounded=0;orthogonalLoop=1;jettySize=auto;html=1;exitX=0.5;exitY=1;exitDx=0;exitDy=0;entryX=0.5;entryY=0;entryDx=0;entryDy=0;" edge="1" parent="xZ3j72DLKvOZhvNE5rc1-166" source="xZ3j72DLKvOZhvNE5rc1-92" target="xZ3j72DLKvOZhvNE5rc1-98">
          <mxGeometry relative="1" as="geometry" />
        </mxCell>
        <mxCell id="xZ3j72DLKvOZhvNE5rc1-140" style="rounded=0;orthogonalLoop=1;jettySize=auto;html=1;exitX=0.5;exitY=1;exitDx=0;exitDy=0;entryX=0.5;entryY=0;entryDx=0;entryDy=0;" edge="1" parent="xZ3j72DLKvOZhvNE5rc1-166" source="xZ3j72DLKvOZhvNE5rc1-92" target="xZ3j72DLKvOZhvNE5rc1-99">
          <mxGeometry relative="1" as="geometry" />
        </mxCell>
        <mxCell id="xZ3j72DLKvOZhvNE5rc1-141" style="rounded=0;orthogonalLoop=1;jettySize=auto;html=1;exitX=0.5;exitY=1;exitDx=0;exitDy=0;entryX=0.5;entryY=0;entryDx=0;entryDy=0;" edge="1" parent="xZ3j72DLKvOZhvNE5rc1-166" source="xZ3j72DLKvOZhvNE5rc1-92" target="xZ3j72DLKvOZhvNE5rc1-100">
          <mxGeometry relative="1" as="geometry" />
        </mxCell>
        <mxCell id="xZ3j72DLKvOZhvNE5rc1-142" style="rounded=0;orthogonalLoop=1;jettySize=auto;html=1;exitX=0.5;exitY=1;exitDx=0;exitDy=0;entryX=0.5;entryY=0;entryDx=0;entryDy=0;" edge="1" parent="xZ3j72DLKvOZhvNE5rc1-166" source="xZ3j72DLKvOZhvNE5rc1-93" target="xZ3j72DLKvOZhvNE5rc1-97">
          <mxGeometry relative="1" as="geometry" />
        </mxCell>
        <mxCell id="xZ3j72DLKvOZhvNE5rc1-143" style="rounded=0;orthogonalLoop=1;jettySize=auto;html=1;exitX=0.5;exitY=1;exitDx=0;exitDy=0;entryX=0.5;entryY=0;entryDx=0;entryDy=0;" edge="1" parent="xZ3j72DLKvOZhvNE5rc1-166" source="xZ3j72DLKvOZhvNE5rc1-93" target="xZ3j72DLKvOZhvNE5rc1-98">
          <mxGeometry relative="1" as="geometry" />
        </mxCell>
        <mxCell id="xZ3j72DLKvOZhvNE5rc1-144" style="rounded=0;orthogonalLoop=1;jettySize=auto;html=1;exitX=0.5;exitY=1;exitDx=0;exitDy=0;entryX=0.5;entryY=0;entryDx=0;entryDy=0;" edge="1" parent="xZ3j72DLKvOZhvNE5rc1-166" source="xZ3j72DLKvOZhvNE5rc1-93" target="xZ3j72DLKvOZhvNE5rc1-99">
          <mxGeometry relative="1" as="geometry" />
        </mxCell>
        <mxCell id="xZ3j72DLKvOZhvNE5rc1-145" style="rounded=0;orthogonalLoop=1;jettySize=auto;html=1;exitX=0.5;exitY=1;exitDx=0;exitDy=0;entryX=0.5;entryY=0;entryDx=0;entryDy=0;" edge="1" parent="xZ3j72DLKvOZhvNE5rc1-166" source="xZ3j72DLKvOZhvNE5rc1-93" target="xZ3j72DLKvOZhvNE5rc1-100">
          <mxGeometry relative="1" as="geometry" />
        </mxCell>
        <mxCell id="xZ3j72DLKvOZhvNE5rc1-146" style="rounded=0;orthogonalLoop=1;jettySize=auto;html=1;exitX=0.5;exitY=1;exitDx=0;exitDy=0;entryX=0.5;entryY=0;entryDx=0;entryDy=0;" edge="1" parent="xZ3j72DLKvOZhvNE5rc1-166" source="xZ3j72DLKvOZhvNE5rc1-94" target="xZ3j72DLKvOZhvNE5rc1-97">
          <mxGeometry relative="1" as="geometry" />
        </mxCell>
        <mxCell id="xZ3j72DLKvOZhvNE5rc1-147" style="rounded=0;orthogonalLoop=1;jettySize=auto;html=1;exitX=0.5;exitY=1;exitDx=0;exitDy=0;entryX=0.5;entryY=0;entryDx=0;entryDy=0;" edge="1" parent="xZ3j72DLKvOZhvNE5rc1-166" source="xZ3j72DLKvOZhvNE5rc1-94" target="xZ3j72DLKvOZhvNE5rc1-98">
          <mxGeometry relative="1" as="geometry" />
        </mxCell>
        <mxCell id="xZ3j72DLKvOZhvNE5rc1-148" style="rounded=0;orthogonalLoop=1;jettySize=auto;html=1;exitX=0.5;exitY=1;exitDx=0;exitDy=0;entryX=0.5;entryY=0;entryDx=0;entryDy=0;" edge="1" parent="xZ3j72DLKvOZhvNE5rc1-166" source="xZ3j72DLKvOZhvNE5rc1-94" target="xZ3j72DLKvOZhvNE5rc1-99">
          <mxGeometry relative="1" as="geometry" />
        </mxCell>
        <mxCell id="xZ3j72DLKvOZhvNE5rc1-149" style="rounded=0;orthogonalLoop=1;jettySize=auto;html=1;exitX=0.5;exitY=1;exitDx=0;exitDy=0;entryX=0.5;entryY=0;entryDx=0;entryDy=0;" edge="1" parent="xZ3j72DLKvOZhvNE5rc1-166" source="xZ3j72DLKvOZhvNE5rc1-94" target="xZ3j72DLKvOZhvNE5rc1-100">
          <mxGeometry relative="1" as="geometry" />
        </mxCell>
        <mxCell id="xZ3j72DLKvOZhvNE5rc1-150" style="rounded=0;orthogonalLoop=1;jettySize=auto;html=1;exitX=0.5;exitY=1;exitDx=0;exitDy=0;entryX=0.5;entryY=0;entryDx=0;entryDy=0;" edge="1" parent="xZ3j72DLKvOZhvNE5rc1-166" source="xZ3j72DLKvOZhvNE5rc1-95" target="xZ3j72DLKvOZhvNE5rc1-97">
          <mxGeometry relative="1" as="geometry" />
        </mxCell>
        <mxCell id="xZ3j72DLKvOZhvNE5rc1-151" style="rounded=0;orthogonalLoop=1;jettySize=auto;html=1;exitX=0.5;exitY=1;exitDx=0;exitDy=0;entryX=0.5;entryY=0;entryDx=0;entryDy=0;" edge="1" parent="xZ3j72DLKvOZhvNE5rc1-166" source="xZ3j72DLKvOZhvNE5rc1-95" target="xZ3j72DLKvOZhvNE5rc1-98">
          <mxGeometry relative="1" as="geometry" />
        </mxCell>
        <mxCell id="xZ3j72DLKvOZhvNE5rc1-152" style="rounded=0;orthogonalLoop=1;jettySize=auto;html=1;exitX=0.5;exitY=1;exitDx=0;exitDy=0;entryX=0.5;entryY=0;entryDx=0;entryDy=0;" edge="1" parent="xZ3j72DLKvOZhvNE5rc1-166" source="xZ3j72DLKvOZhvNE5rc1-95" target="xZ3j72DLKvOZhvNE5rc1-99">
          <mxGeometry relative="1" as="geometry" />
        </mxCell>
        <mxCell id="xZ3j72DLKvOZhvNE5rc1-153" style="rounded=0;orthogonalLoop=1;jettySize=auto;html=1;exitX=0.5;exitY=1;exitDx=0;exitDy=0;entryX=0.5;entryY=0;entryDx=0;entryDy=0;" edge="1" parent="xZ3j72DLKvOZhvNE5rc1-166" source="xZ3j72DLKvOZhvNE5rc1-95" target="xZ3j72DLKvOZhvNE5rc1-100">
          <mxGeometry relative="1" as="geometry" />
        </mxCell>
        <mxCell id="xZ3j72DLKvOZhvNE5rc1-154" style="rounded=0;orthogonalLoop=1;jettySize=auto;html=1;exitX=0.5;exitY=1;exitDx=0;exitDy=0;entryX=0.5;entryY=0;entryDx=0;entryDy=0;" edge="1" parent="xZ3j72DLKvOZhvNE5rc1-166" source="xZ3j72DLKvOZhvNE5rc1-97" target="xZ3j72DLKvOZhvNE5rc1-111">
          <mxGeometry relative="1" as="geometry" />
        </mxCell>
        <mxCell id="xZ3j72DLKvOZhvNE5rc1-155" style="rounded=0;orthogonalLoop=1;jettySize=auto;html=1;exitX=0.5;exitY=1;exitDx=0;exitDy=0;entryX=0.5;entryY=0;entryDx=0;entryDy=0;" edge="1" parent="xZ3j72DLKvOZhvNE5rc1-166" source="xZ3j72DLKvOZhvNE5rc1-97" target="xZ3j72DLKvOZhvNE5rc1-112">
          <mxGeometry relative="1" as="geometry" />
        </mxCell>
        <mxCell id="xZ3j72DLKvOZhvNE5rc1-156" style="rounded=0;orthogonalLoop=1;jettySize=auto;html=1;exitX=0.5;exitY=1;exitDx=0;exitDy=0;entryX=0.5;entryY=0;entryDx=0;entryDy=0;" edge="1" parent="xZ3j72DLKvOZhvNE5rc1-166" source="xZ3j72DLKvOZhvNE5rc1-98" target="xZ3j72DLKvOZhvNE5rc1-111">
          <mxGeometry relative="1" as="geometry" />
        </mxCell>
        <mxCell id="xZ3j72DLKvOZhvNE5rc1-157" style="rounded=0;orthogonalLoop=1;jettySize=auto;html=1;exitX=0.5;exitY=1;exitDx=0;exitDy=0;entryX=0.5;entryY=0;entryDx=0;entryDy=0;" edge="1" parent="xZ3j72DLKvOZhvNE5rc1-166" source="xZ3j72DLKvOZhvNE5rc1-99" target="xZ3j72DLKvOZhvNE5rc1-111">
          <mxGeometry relative="1" as="geometry" />
        </mxCell>
        <mxCell id="xZ3j72DLKvOZhvNE5rc1-158" style="rounded=0;orthogonalLoop=1;jettySize=auto;html=1;exitX=0.5;exitY=1;exitDx=0;exitDy=0;entryX=0.5;entryY=0;entryDx=0;entryDy=0;" edge="1" parent="xZ3j72DLKvOZhvNE5rc1-166" source="xZ3j72DLKvOZhvNE5rc1-98" target="xZ3j72DLKvOZhvNE5rc1-112">
          <mxGeometry relative="1" as="geometry" />
        </mxCell>
        <mxCell id="xZ3j72DLKvOZhvNE5rc1-159" style="rounded=0;orthogonalLoop=1;jettySize=auto;html=1;exitX=0.5;exitY=1;exitDx=0;exitDy=0;entryX=0.5;entryY=0;entryDx=0;entryDy=0;" edge="1" parent="xZ3j72DLKvOZhvNE5rc1-166" source="xZ3j72DLKvOZhvNE5rc1-99" target="xZ3j72DLKvOZhvNE5rc1-112">
          <mxGeometry relative="1" as="geometry" />
        </mxCell>
        <mxCell id="xZ3j72DLKvOZhvNE5rc1-160" style="rounded=0;orthogonalLoop=1;jettySize=auto;html=1;exitX=0.5;exitY=1;exitDx=0;exitDy=0;entryX=0.5;entryY=0;entryDx=0;entryDy=0;" edge="1" parent="xZ3j72DLKvOZhvNE5rc1-166" source="xZ3j72DLKvOZhvNE5rc1-100" target="xZ3j72DLKvOZhvNE5rc1-112">
          <mxGeometry relative="1" as="geometry" />
        </mxCell>
        <mxCell id="xZ3j72DLKvOZhvNE5rc1-161" style="rounded=0;orthogonalLoop=1;jettySize=auto;html=1;exitX=0.5;exitY=1;exitDx=0;exitDy=0;entryX=0.5;entryY=0;entryDx=0;entryDy=0;" edge="1" parent="xZ3j72DLKvOZhvNE5rc1-166" source="xZ3j72DLKvOZhvNE5rc1-100" target="xZ3j72DLKvOZhvNE5rc1-111">
          <mxGeometry relative="1" as="geometry" />
        </mxCell>
        <mxCell id="xZ3j72DLKvOZhvNE5rc1-168" value="输入序列" style="text;html=1;align=center;verticalAlign=middle;resizable=0;points=[];autosize=1;strokeColor=none;fillColor=none;horizontal=1;fontSize=20;" vertex="1" parent="1">
          <mxGeometry x="183" y="476" width="98" height="36" as="geometry" />
        </mxCell>
        <mxCell id="xZ3j72DLKvOZhvNE5rc1-174" value="阈值计算" style="rounded=0;whiteSpace=wrap;html=1;fontSize=20;flipH=1;" vertex="1" parent="1">
          <mxGeometry x="684" y="392.5" width="150" height="45" as="geometry" />
        </mxCell>
        <mxCell id="xZ3j72DLKvOZhvNE5rc1-175" value="区域致病性预测" style="text;html=1;align=center;verticalAlign=middle;resizable=0;points=[];autosize=1;strokeColor=none;fillColor=none;fontSize=20;" vertex="1" parent="1">
          <mxGeometry x="153" y="697" width="158" height="36" as="geometry" />
        </mxCell>
        <mxCell id="xZ3j72DLKvOZhvNE5rc1-183" value="" style="edgeStyle=none;orthogonalLoop=1;jettySize=auto;html=1;rounded=0;" edge="1" parent="1">
          <mxGeometry width="100" relative="1" as="geometry">
            <mxPoint x="368.8299999999999" y="512" as="sourcePoint" />
            <mxPoint x="368.8299999999999" y="538" as="targetPoint" />
            <Array as="points" />
          </mxGeometry>
        </mxCell>
        <mxCell id="xZ3j72DLKvOZhvNE5rc1-185" value="" style="edgeStyle=none;orthogonalLoop=1;jettySize=auto;html=1;rounded=0;" edge="1" parent="1">
          <mxGeometry width="100" relative="1" as="geometry">
            <mxPoint x="470.21000000000004" y="512" as="sourcePoint" />
            <mxPoint x="470.21000000000004" y="538" as="targetPoint" />
            <Array as="points" />
          </mxGeometry>
        </mxCell>
        <mxCell id="xZ3j72DLKvOZhvNE5rc1-186" value="" style="edgeStyle=none;orthogonalLoop=1;jettySize=auto;html=1;rounded=0;" edge="1" parent="1">
          <mxGeometry width="100" relative="1" as="geometry">
            <mxPoint x="560.71" y="512" as="sourcePoint" />
            <mxPoint x="560.71" y="538" as="targetPoint" />
            <Array as="points" />
          </mxGeometry>
        </mxCell>
        <mxCell id="xZ3j72DLKvOZhvNE5rc1-187" value="" style="edgeStyle=none;orthogonalLoop=1;jettySize=auto;html=1;rounded=0;" edge="1" parent="1">
          <mxGeometry width="100" relative="1" as="geometry">
            <mxPoint x="648" y="512" as="sourcePoint" />
            <mxPoint x="648" y="538" as="targetPoint" />
            <Array as="points" />
          </mxGeometry>
        </mxCell>
        <mxCell id="xZ3j72DLKvOZhvNE5rc1-188" value="" style="edgeStyle=none;orthogonalLoop=1;jettySize=auto;html=1;rounded=0;" edge="1" parent="1">
          <mxGeometry width="100" relative="1" as="geometry">
            <mxPoint x="775" y="512" as="sourcePoint" />
            <mxPoint x="775" y="538" as="targetPoint" />
            <Array as="points" />
          </mxGeometry>
        </mxCell>
        <mxCell id="xZ3j72DLKvOZhvNE5rc1-201" style="edgeStyle=orthogonalEdgeStyle;rounded=0;orthogonalLoop=1;jettySize=auto;html=1;exitX=0;exitY=0.5;exitDx=0;exitDy=0;" edge="1" parent="1" source="xZ3j72DLKvOZhvNE5rc1-196" target="xZ3j72DLKvOZhvNE5rc1-198">
          <mxGeometry relative="1" as="geometry" />
        </mxCell>
        <mxCell id="xZ3j72DLKvOZhvNE5rc1-202" style="edgeStyle=orthogonalEdgeStyle;rounded=0;orthogonalLoop=1;jettySize=auto;html=1;exitX=1;exitY=0.5;exitDx=0;exitDy=0;" edge="1" parent="1" source="xZ3j72DLKvOZhvNE5rc1-196" target="xZ3j72DLKvOZhvNE5rc1-199">
          <mxGeometry relative="1" as="geometry" />
        </mxCell>
        <mxCell id="xZ3j72DLKvOZhvNE5rc1-196" value="致病区域比例是否大于阈值" style="rhombus;whiteSpace=wrap;html=1;fontSize=18;" vertex="1" parent="1">
          <mxGeometry x="438.0899999999999" y="1018" width="278.91" height="61" as="geometry" />
        </mxCell>
        <mxCell id="xZ3j72DLKvOZhvNE5rc1-198" value="致病" style="whiteSpace=wrap;html=1;fontSize=20;" vertex="1" parent="1">
          <mxGeometry x="332" y="1095" width="120" height="35" as="geometry" />
        </mxCell>
        <mxCell id="xZ3j72DLKvOZhvNE5rc1-199" value="非致病" style="whiteSpace=wrap;html=1;fontSize=20;" vertex="1" parent="1">
          <mxGeometry x="702" y="1095" width="120" height="35" as="geometry" />
        </mxCell>
        <mxCell id="xZ3j72DLKvOZhvNE5rc1-200" value="" style="edgeStyle=none;orthogonalLoop=1;jettySize=auto;html=1;rounded=0;entryX=0.5;entryY=0;entryDx=0;entryDy=0;" edge="1" parent="1" target="xZ3j72DLKvOZhvNE5rc1-196">
          <mxGeometry width="100" relative="1" as="geometry">
            <mxPoint x="577" y="975" as="sourcePoint" />
            <mxPoint x="548" y="1038" as="targetPoint" />
            <Array as="points" />
          </mxGeometry>
        </mxCell>
        <mxCell id="xZ3j72DLKvOZhvNE5rc1-203" value="是" style="text;html=1;align=center;verticalAlign=middle;resizable=0;points=[];autosize=1;strokeColor=none;fillColor=none;fontSize=18;" vertex="1" parent="1">
          <mxGeometry x="395" y="1017" width="36" height="34" as="geometry" />
        </mxCell>
        <mxCell id="xZ3j72DLKvOZhvNE5rc1-204" value="否" style="text;html=1;align=center;verticalAlign=middle;resizable=0;points=[];autosize=1;strokeColor=none;fillColor=none;fontSize=18;" vertex="1" parent="1">
          <mxGeometry x="724" y="1017" width="36" height="34" as="geometry" />
        </mxCell>
        <mxCell id="xZ3j72DLKvOZhvNE5rc1-206" value="区域预测结果" style="text;html=1;align=center;verticalAlign=middle;resizable=0;points=[];autosize=1;strokeColor=none;fillColor=none;fontSize=20;" vertex="1" parent="1">
          <mxGeometry x="163" y="944" width="138" height="36" as="geometry" />
        </mxCell>
        <mxCell id="xZ3j72DLKvOZhvNE5rc1-207" value="序列预测结果" style="text;html=1;align=center;verticalAlign=middle;resizable=0;points=[];autosize=1;strokeColor=none;fillColor=none;fontSize=20;" vertex="1" parent="1">
          <mxGeometry x="163" y="1075" width="138" height="36" as="geometry" />
        </mxCell>
        <mxCell id="xZ3j72DLKvOZhvNE5rc1-210" value="" style="group" vertex="1" connectable="0" parent="1">
          <mxGeometry x="314" y="949" width="515" height="20" as="geometry" />
        </mxCell>
        <mxCell id="xZ3j72DLKvOZhvNE5rc1-177" value="" style="rounded=0;whiteSpace=wrap;html=1;" vertex="1" parent="xZ3j72DLKvOZhvNE5rc1-210">
          <mxGeometry width="515" height="20" as="geometry" />
        </mxCell>
        <mxCell id="xZ3j72DLKvOZhvNE5rc1-178" value="" style="rounded=0;whiteSpace=wrap;html=1;fillColor=#f8cecc;strokeColor=#b85450;" vertex="1" parent="xZ3j72DLKvOZhvNE5rc1-210">
          <mxGeometry x="26.5" width="50" height="20" as="geometry" />
        </mxCell>
        <mxCell id="xZ3j72DLKvOZhvNE5rc1-179" value="" style="rounded=0;whiteSpace=wrap;html=1;fillColor=#d5e8d4;strokeColor=#82b366;" vertex="1" parent="xZ3j72DLKvOZhvNE5rc1-210">
          <mxGeometry x="113" width="87" height="20" as="geometry" />
        </mxCell>
        <mxCell id="xZ3j72DLKvOZhvNE5rc1-180" value="" style="rounded=0;whiteSpace=wrap;html=1;fillColor=#d5e8d4;strokeColor=#82b366;" vertex="1" parent="xZ3j72DLKvOZhvNE5rc1-210">
          <mxGeometry x="221.5" width="51" height="20" as="geometry" />
        </mxCell>
        <mxCell id="xZ3j72DLKvOZhvNE5rc1-181" value="" style="rounded=0;whiteSpace=wrap;html=1;fillColor=#f8cecc;strokeColor=#b85450;" vertex="1" parent="xZ3j72DLKvOZhvNE5rc1-210">
          <mxGeometry x="295" width="83" height="20" as="geometry" />
        </mxCell>
        <mxCell id="xZ3j72DLKvOZhvNE5rc1-182" value="" style="rounded=0;whiteSpace=wrap;html=1;fillColor=#d5e8d4;strokeColor=#82b366;" vertex="1" parent="xZ3j72DLKvOZhvNE5rc1-210">
          <mxGeometry x="427" width="70" height="20" as="geometry" />
        </mxCell>
        <mxCell id="xZ3j72DLKvOZhvNE5rc1-212" value="" style="group" vertex="1" connectable="0" parent="1">
          <mxGeometry x="316" y="481" width="515" height="20" as="geometry" />
        </mxCell>
        <mxCell id="xZ3j72DLKvOZhvNE5rc1-213" value="" style="rounded=0;whiteSpace=wrap;html=1;" vertex="1" parent="xZ3j72DLKvOZhvNE5rc1-212">
          <mxGeometry width="515" height="20" as="geometry" />
        </mxCell>
        <mxCell id="xZ3j72DLKvOZhvNE5rc1-214" value="" style="rounded=0;whiteSpace=wrap;html=1;fillColor=#f5f5f5;strokeColor=#666666;fontColor=#333333;" vertex="1" parent="xZ3j72DLKvOZhvNE5rc1-212">
          <mxGeometry x="26.5" width="50" height="20" as="geometry" />
        </mxCell>
        <mxCell id="xZ3j72DLKvOZhvNE5rc1-215" value="" style="rounded=0;whiteSpace=wrap;html=1;fillColor=#f5f5f5;strokeColor=#666666;fontColor=#333333;" vertex="1" parent="xZ3j72DLKvOZhvNE5rc1-212">
          <mxGeometry x="113" width="87" height="20" as="geometry" />
        </mxCell>
        <mxCell id="xZ3j72DLKvOZhvNE5rc1-216" value="" style="rounded=0;whiteSpace=wrap;html=1;fillColor=#f5f5f5;strokeColor=#666666;fontColor=#333333;" vertex="1" parent="xZ3j72DLKvOZhvNE5rc1-212">
          <mxGeometry x="221.5" width="51" height="20" as="geometry" />
        </mxCell>
        <mxCell id="xZ3j72DLKvOZhvNE5rc1-217" value="" style="rounded=0;whiteSpace=wrap;html=1;fillColor=#f5f5f5;strokeColor=#666666;fontColor=#333333;" vertex="1" parent="xZ3j72DLKvOZhvNE5rc1-212">
          <mxGeometry x="295" width="83" height="20" as="geometry" />
        </mxCell>
        <mxCell id="xZ3j72DLKvOZhvNE5rc1-218" value="" style="rounded=0;whiteSpace=wrap;html=1;fillColor=#f5f5f5;strokeColor=#666666;fontColor=#333333;" vertex="1" parent="xZ3j72DLKvOZhvNE5rc1-212">
          <mxGeometry x="427" width="70" height="20" as="geometry" />
        </mxCell>
        <mxCell id="xZ3j72DLKvOZhvNE5rc1-190" value="" style="edgeStyle=none;orthogonalLoop=1;jettySize=auto;html=1;rounded=0;" edge="1" parent="1">
          <mxGeometry width="100" relative="1" as="geometry">
            <mxPoint x="369" y="910" as="sourcePoint" />
            <mxPoint x="369" y="936" as="targetPoint" />
            <Array as="points" />
          </mxGeometry>
        </mxCell>
        <mxCell id="xZ3j72DLKvOZhvNE5rc1-191" value="" style="edgeStyle=none;orthogonalLoop=1;jettySize=auto;html=1;rounded=0;" edge="1" parent="1">
          <mxGeometry width="100" relative="1" as="geometry">
            <mxPoint x="470.3800000000001" y="910" as="sourcePoint" />
            <mxPoint x="470.3800000000001" y="936" as="targetPoint" />
            <Array as="points" />
          </mxGeometry>
        </mxCell>
        <mxCell id="xZ3j72DLKvOZhvNE5rc1-192" value="" style="edgeStyle=none;orthogonalLoop=1;jettySize=auto;html=1;rounded=0;" edge="1" parent="1">
          <mxGeometry width="100" relative="1" as="geometry">
            <mxPoint x="560.8800000000001" y="910" as="sourcePoint" />
            <mxPoint x="560.8800000000001" y="936" as="targetPoint" />
            <Array as="points" />
          </mxGeometry>
        </mxCell>
        <mxCell id="xZ3j72DLKvOZhvNE5rc1-193" value="" style="edgeStyle=none;orthogonalLoop=1;jettySize=auto;html=1;rounded=0;" edge="1" parent="1">
          <mxGeometry width="100" relative="1" as="geometry">
            <mxPoint x="648.1700000000001" y="910" as="sourcePoint" />
            <mxPoint x="648.1700000000001" y="936" as="targetPoint" />
            <Array as="points" />
          </mxGeometry>
        </mxCell>
        <mxCell id="xZ3j72DLKvOZhvNE5rc1-194" value="" style="edgeStyle=none;orthogonalLoop=1;jettySize=auto;html=1;rounded=0;" edge="1" parent="1">
          <mxGeometry width="100" relative="1" as="geometry">
            <mxPoint x="775.1700000000001" y="910" as="sourcePoint" />
            <mxPoint x="775.1700000000001" y="936" as="targetPoint" />
            <Array as="points" />
          </mxGeometry>
        </mxCell>
      </root>
    </mxGraphModel>
  </diagram>
</mxfile>
